<mxfile host="app.diagrams.net" modified="2024-06-14T14:57:13.704Z" agent="Mozilla/5.0 (X11; CrOS x86_64 14541.0.0) AppleWebKit/537.36 (KHTML, like Gecko) Chrome/125.0.0.0 Safari/537.36" etag="-rsKhTmC9YRtpMY5qPX0" version="24.5.4" type="github">
  <diagram name="Page-1" id="fyN8EG7Ama09wMrGybzz">
    <mxGraphModel dx="880" dy="1677" grid="1" gridSize="10" guides="1" tooltips="1" connect="1" arrows="1" fold="1" page="1" pageScale="1" pageWidth="827" pageHeight="1169" math="0" shadow="0">
      <root>
        <mxCell id="0" />
        <mxCell id="1" parent="0" />
        <mxCell id="2" value="Cat" style="whiteSpace=wrap;strokeWidth=2;" parent="1" vertex="1">
          <mxGeometry x="156" width="39" height="34" as="geometry" />
        </mxCell>
        <mxCell id="3" value="Body" style="ellipse;aspect=fixed;strokeWidth=2;whiteSpace=wrap;" parent="1" vertex="1">
          <mxGeometry x="1" y="117" width="50" height="50" as="geometry" />
        </mxCell>
        <mxCell id="4" value="Tail" style="ellipse;aspect=fixed;strokeWidth=2;whiteSpace=wrap;" parent="1" vertex="1">
          <mxGeometry x="101" y="122" width="40" height="40" as="geometry" />
        </mxCell>
        <mxCell id="5" value="Whiskers" style="ellipse;aspect=fixed;strokeWidth=2;whiteSpace=wrap;" parent="1" vertex="1">
          <mxGeometry x="191" y="103" width="78" height="78" as="geometry" />
        </mxCell>
        <mxCell id="6" value="Claws" style="ellipse;aspect=fixed;strokeWidth=2;whiteSpace=wrap;" parent="1" vertex="1">
          <mxGeometry x="324" y="114" width="56" height="56" as="geometry" />
        </mxCell>
        <mxCell id="7" value="Has fur" style="curved=1;startArrow=none;endArrow=block;exitX=-0.01;exitY=0.7;entryX=0.5;entryY=0;" parent="1" source="2" target="3" edge="1">
          <mxGeometry relative="1" as="geometry">
            <Array as="points">
              <mxPoint x="26" y="69" />
            </Array>
          </mxGeometry>
        </mxCell>
        <mxCell id="8" value="Has tail" style="curved=1;startArrow=none;endArrow=block;exitX=0.03;exitY=1;entryX=0.5;entryY=0;" parent="1" source="2" target="4" edge="1">
          <mxGeometry relative="1" as="geometry">
            <Array as="points">
              <mxPoint x="121" y="69" />
            </Array>
          </mxGeometry>
        </mxCell>
        <mxCell id="9" value="Has whiskers" style="curved=1;startArrow=none;endArrow=block;exitX=0.96;exitY=1;entryX=0.5;entryY=0;" parent="1" source="2" target="5" edge="1">
          <mxGeometry relative="1" as="geometry">
            <Array as="points">
              <mxPoint x="230" y="69" />
            </Array>
          </mxGeometry>
        </mxCell>
        <mxCell id="10" value="Has sharp claws" style="curved=1;startArrow=none;endArrow=block;exitX=1;exitY=0.67;entryX=0.5;entryY=0;" parent="1" source="2" target="6" edge="1">
          <mxGeometry relative="1" as="geometry">
            <Array as="points">
              <mxPoint x="352" y="69" />
            </Array>
          </mxGeometry>
        </mxCell>
        <mxCell id="u2nNGwwCcGR5UPS9zMmX-10" value="" style="verticalLabelPosition=bottom;verticalAlign=top;html=1;shadow=0;dashed=0;strokeWidth=1;shape=mxgraph.android.contact_badge_normal;sketch=0;" vertex="1" parent="1">
          <mxGeometry x="116" y="-120" width="40" height="40" as="geometry" />
        </mxCell>
      </root>
    </mxGraphModel>
  </diagram>
</mxfile>
